<?xml version="1.0" standalone="no"?>
<!DOCTYPE svg PUBLIC "-//W3C//DTD SVG 1.1//EN" "http://www.w3.org/Graphics/SVG/1.1/DTD/svg11.dtd" >
<!--
2013-9-30: Created.
-->
<svg>
<metadata>
Created by iconfont
</metadata>
<defs>

<font id="iconfont" horiz-adv-x="1024" >
  <font-face
    font-family="iconfont"
    font-weight="500"
    font-stretch="normal"
    units-per-em="1024"
    ascent="896"
    descent="-128"
  />
    <missing-glyph />
    
    <glyph glyph-name="admin_new_download" unicode="&#59176;" d="M149.333333 341.333333a21.333333 21.333333 0 0 0 21.333334-21.333333v-256h682.666666V320a21.333333 21.333333 0 0 0 21.333334 21.333333h42.666666a21.333333 21.333333 0 0 0 21.333334-21.333333v-298.666667a42.666667 42.666667 0 0 0-42.666667-42.666666H128a42.666667 42.666667 0 0 0-42.666667 42.666666V320a21.333333 21.333333 0 0 0 21.333334 21.333333h42.666666zM533.333333 768a21.333333 21.333333 0 0 0 21.333334-21.333333v-413.461334l184.021333 184a21.333333 21.333333 0 0 0 30.186667 0l32.768-32.789333a21.333333 21.333333 0 0 0 0-30.165333l-255.146667-255.146667a44.522667 44.522667 0 0 0-60.501333-2.261333l-2.432 2.261333-255.146667 255.146667a21.333333 21.333333 0 0 0 0 30.165333l32.789333 32.789333a21.333333 21.333333 0 0 0 30.165334 0L469.333333 339.264V746.666667a21.333333 21.333333 0 0 0 21.333334 21.333333h42.666666z"  horiz-adv-x="1024" />

    
    <glyph glyph-name="admin_new_icon_refresh" unicode="&#59177;" d="M618.666667 469.333333a21.333333 21.333333 0 0 0-21.333334 21.333334v42.666666a21.333333 21.333333 0 0 0 21.333334 21.333334h138.453333c-53.973333 77.376-143.616 128-245.12 128-164.949333 0-298.666667-133.717333-298.666667-298.666667s133.717333-298.666667 298.666667-298.666667c135.296 0 249.578667 89.962667 286.293333 213.333334h88.192C847.658667 127.637333 694.741333 0 512 0c-212.074667 0-384 171.925333-384 384S299.925333 768 512 768c120.64 0 228.288-55.637333 298.688-142.656L810.666667 746.666667a21.333333 21.333333 0 0 0 21.333333 21.333333h42.666667a21.333333 21.333333 0 0 0 21.333333-21.333333v-234.666667a42.666667 42.666667 0 0 0-39.466667-42.56L853.333333 469.333333H618.666667z"  horiz-adv-x="1024" />

    
    <glyph glyph-name="admin_new_upload" unicode="&#59178;" d="M149.333333 341.333333a21.333333 21.333333 0 0 0 21.333334-21.333333v-256h682.666666V320a21.333333 21.333333 0 0 0 21.333334 21.333333h42.666666a21.333333 21.333333 0 0 0 21.333334-21.333333v-298.666667a42.666667 42.666667 0 0 0-42.666667-42.666666H128a42.666667 42.666667 0 0 0-42.666667 42.666666V320a21.333333 21.333333 0 0 0 21.333334 21.333333h42.666666zM482.965333 784.490667a44.522667 44.522667 0 0 0 60.501334-2.261334l255.146666-255.146666a21.333333 21.333333 0 0 0 0-30.165334l-32.768-32.789333a21.333333 21.333333 0 0 0-30.186666 0L554.666667 645.12V256a21.333333 21.333333 0 0 0-21.333334-21.333333h-42.666666a21.333333 21.333333 0 0 0-21.333334 21.333333V645.12l-180.992-180.992a21.333333 21.333333 0 0 0-28.16-1.770667l-2.026666 1.770667-32.768 32.789333a21.333333 21.333333 0 0 0 0 30.165334l255.146666 255.146666z"  horiz-adv-x="1024" />

    
    <glyph glyph-name="admin_new_icon_customerservice" unicode="&#59179;" d="M255.978667 428.501333L256 426.666667v-128l-0.021333-1.834667V277.333333a42.666667 42.666667 0 0 0-42.666667-42.666666H149.333333a64 64 0 0 0-64 64v128a64 64 0 0 0 64 64h21.482667C171.797333 667.456 321.237333 810.666667 512 810.666667s340.053333-143.210667 341.056-320H874.666667a64 64 0 0 0 64-64v-128a64 64 0 0 0-64-64h-23.786667c-15.445333-191.445333-113.088-268.16-266.709333-276.544A42.88 42.88 0 0 0 576-42.666667h-128a42.666667 42.666667 0 0 0-42.666667 42.666667v85.333333a42.666667 42.666667 0 0 0 42.666667 42.666667h128a42.666667 42.666667 0 0 0 42.666667-42.666667v-29.312c98.709333 15.466667 149.034667 75.541333 149.034666 234.794667V405.333333h0.128v83.584C767.829333 614.272 660.522667 725.333333 512 725.333333c-148.544 0-256.021333-111.061333-256.021333-236.416v-60.416z"  horiz-adv-x="1024" />

    
    <glyph glyph-name="admin_new_search" unicode="&#59180;" d="M469.333333 789.333333c200.298667 0 362.666667-162.368 362.666667-362.666666 0-75.712-23.189333-146.005333-62.869333-204.16l144.682666-144.682667a21.333333 21.333333 0 0 0 0-30.165333l-36.202666-36.202667a21.333333 21.333333 0 0 0-30.165334 0L706.56 152.32A361.258667 361.258667 0 0 0 469.333333 64c-200.298667 0-362.666667 162.368-362.666666 362.666667S269.034667 789.333333 469.333333 789.333333z m0-89.6C318.506667 699.733333 196.266667 577.493333 196.266667 426.666667S318.506667 153.6 469.333333 153.6 742.4 275.84 742.4 426.666667 620.16 699.733333 469.333333 699.733333z"  horiz-adv-x="1024" />

    
    <glyph glyph-name="admin_new_list_view" unicode="&#59181;" d="M362.666667 768h554.666666a21.333333 21.333333 0 0 0 21.333334-21.333333v-42.666667a21.333333 21.333333 0 0 0-21.333334-21.333333H362.666667a21.333333 21.333333 0 0 0-21.333334 21.333333V746.666667a21.333333 21.333333 0 0 0 21.333334 21.333333z m0-341.333333h554.666666a21.333333 21.333333 0 0 0 21.333334-21.333334v-42.666666a21.333333 21.333333 0 0 0-21.333334-21.333334H362.666667a21.333333 21.333333 0 0 0-21.333334 21.333334v42.666666a21.333333 21.333333 0 0 0 21.333334 21.333334zM106.666667 426.666667h128a21.333333 21.333333 0 0 0 21.333333-21.333334v-42.666666a21.333333 21.333333 0 0 0-21.333333-21.333334H106.666667a21.333333 21.333333 0 0 0-21.333334 21.333334v42.666666a21.333333 21.333333 0 0 0 21.333334 21.333334zM106.666667 768h128a21.333333 21.333333 0 0 0 21.333333-21.333333v-42.666667a21.333333 21.333333 0 0 0-21.333333-21.333333H106.666667a21.333333 21.333333 0 0 0-21.333334 21.333333V746.666667a21.333333 21.333333 0 0 0 21.333334 21.333333z m0-682.666667h128a21.333333 21.333333 0 0 0 21.333333-21.333333v-42.666667a21.333333 21.333333 0 0 0-21.333333-21.333333H106.666667a21.333333 21.333333 0 0 0-21.333334 21.333333v42.666667a21.333333 21.333333 0 0 0 21.333334 21.333333z m256 0h554.666666a21.333333 21.333333 0 0 0 21.333334-21.333333v-42.666667a21.333333 21.333333 0 0 0-21.333334-21.333333H362.666667a21.333333 21.333333 0 0 0-21.333334 21.333333v42.666667a21.333333 21.333333 0 0 0 21.333334 21.333333z"  horiz-adv-x="1024" />

    
    <glyph glyph-name="admin_new_microphone" unicode="&#59182;" d="M554.56 2.090667c0.064-0.682667 0.106667-1.386667 0.106667-2.090667v-64a21.333333 21.333333 0 0 0-21.333334-21.333333h-42.666666a21.333333 21.333333 0 0 0-21.333334 21.333333v64c0 0.704 0.042667 1.408 0.106667 2.090667-207.552 20.565333-371.370667 189.845333-383.402667 399.786666a233.493333 233.493333 0 0 0-0.128 2.453334 21.333333 21.333333 0 0 0 21.333334 22.336H149.973333a21.333333 21.333333 0 0 0 21.312-20.266667l0.213334-3.797333C183.850667 225.322667 331.584 85.333333 512 85.333333c180.778667 0 328.746667 140.544 340.565333 318.336l0.170667 2.773334A21.333333 21.333333 0 0 0 874.026667 426.666667h42.730666a21.333333 21.333333 0 0 0 21.269334-23.168c-11.264-210.688-175.402667-380.8-383.488-401.408zM512 768c-94.250667 0-170.666667-65.493333-170.666667-146.282667v-219.434666C341.333333 321.493333 417.749333 256 512 256s170.666667 65.493333 170.666667 146.282667V621.717333C682.666667 702.506667 606.250667 768 512 768z m0 85.333333c141.376 0 256-101.888 256-227.562666v-227.541334C768 272.554667 653.376 170.666667 512 170.666667s-256 101.888-256 227.562666V625.770667C256 751.445333 370.624 853.333333 512 853.333333z"  horiz-adv-x="1024" />

    
    <glyph glyph-name="admin_new_icon_setting" unicode="&#59183;" d="M512 849.450667c30.208 0 60.032-2.901333 89.237333-8.64l12.458667-2.624 19.136-4.288 59.626667-135.957334 146.858666 16.021334 13.269334-14.442667a465.642667 465.642667 0 0 0 98.261333-165.994667l3.541333-10.944 5.76-18.602666L872.746667 384l87.402666-119.978667-5.76-18.602666a465.365333 465.365333 0 0 0-94.165333-168.405334l-7.637333-8.533333-13.269334-14.442667-146.858666 16.042667-59.626667-135.978667-19.136-4.288c-33.130667-7.466667-67.2-11.264-101.696-11.264-30.208 0-60.053333 2.901333-89.258667 8.64l-12.458666 2.624-19.136 4.309334-59.626667 135.957333-146.837333-16.042667-13.269334 14.442667a465.642667 465.642667 0 0 0-98.261333 166.037333l-3.541333 10.922667-5.76 18.602667L151.232 384l-87.381333 119.957333 5.76 18.602667A465.365333 465.365333 0 0 0 163.776 690.986667l7.637333 8.533333 13.269334 14.442667 146.837333-16.021334 59.626667 135.936 19.136 4.309334c33.130667 7.466667 67.2 11.264 101.717333 11.264z m0-77.568c-16.426667 0-32.746667-1.045333-48.853333-3.072l-12.010667-1.728-4.970667-0.874667-47.744-108.928a63.488 63.488 0 0 0-57.002666-37.973333l-4.117334 0.064-3.925333 0.298666-117.482667 12.864-1.408-1.706666a388.096 388.096 0 0 1-59.946666-100.842667l-3.882667-10.026667-0.832-2.261333 70.165333-96.32c14.464-19.861333 16.021333-46.016 4.693334-67.264l-2.261334-3.904-2.432-3.584-70.165333-96.298667 0.832-2.282666a387.797333 387.797333 0 0 1 57.130667-102.506667l6.698666-8.384 1.408-1.664 117.482667 12.842667a63.488 63.488 0 0 0 61.354667-30.485334l1.984-3.584 1.706666-3.562666 47.744-108.885334 4.970667-0.896c11.989333-1.92 24.106667-3.264 36.309333-4.032l12.245334-0.576 12.309333-0.192c16.426667 0 32.746667 1.045333 48.832 3.072l12.032 1.728 4.928 0.874667 47.786667 108.928a63.488 63.488 0 0 0 57.002666 37.973333l4.117334-0.064 3.925333-0.298666 117.461333-12.842667 1.429334 1.664a388.096 388.096 0 0 1 59.946666 100.864l3.882667 10.005333 0.810667 2.304-70.144 96.298667a63.509333 63.509333 0 0 0-4.693334 67.242667l2.261334 3.925333 2.432 3.584 70.144 96.32-0.810667 2.282667a387.797333 387.797333 0 0 1-57.130667 102.506666l-6.698666 8.362667-1.429334 1.685333-117.461333-12.864a63.488 63.488 0 0 0-61.354667 30.464l-1.984 3.605334-1.706666 3.541333-47.786667 108.949333-4.928 0.853334c-11.989333 1.92-24.106667 3.264-36.309333 4.032l-12.245334 0.576L512 771.882667z m0-193.941334c106.752 0 193.194667-86.869333 193.194667-193.941333 0-107.072-86.442667-193.92-193.194667-193.92S318.805333 276.906667 318.805333 384s86.442667 193.92 193.194667 193.92z m0-77.568c-63.808 0-115.626667-52.053333-115.626667-116.373333 0-64.298667 51.818667-116.373333 115.626667-116.373333s115.626667 52.053333 115.626667 116.373333c0 64.298667-51.818667 116.373333-115.626667 116.373333z"  horiz-adv-x="1024" />

    
    <glyph glyph-name="admin_new_business_card" unicode="&#59184;" d="M981.333333-6.741333v-13.781334a21.333333 21.333333 0 0 0-21.333333-21.333333h-43.904a21.333333 21.333333 0 0 0-21.248 19.413333 127.04 127.04 0 0 1-0.576 5.290667C883.264 65.024 821.205333 128 753.557333 128h-120.917333c-68.096 0-130.133333-63.808-140.48-146.794667l-0.384-3.690666a21.333333 21.333333 0 0 0-21.248-19.370667H426.666667a21.333333 21.333333 0 0 0-21.333334 21.333333v13.781334c0 100.586667 69.333333 185.408 159.701334 211.669333a181.013333 181.013333 0 1 0 257.92-0.298667C912.725333 178.026667 981.333333 93.482667 981.333333-6.741333zM640 682.666667H128v-597.333334h186.666667v-85.333333H85.333333a42.666667 42.666667 0 0 0-42.666666 42.666667V725.333333a42.666667 42.666667 0 0 0 42.666666 42.666667h768a42.666667 42.666667 0 0 0 42.666667-42.666667v-202.432a355.264 355.264 0 0 1-85.333333 52.245334V682.666667h-170.666667z m-405.333333-170.666667h192a21.333333 21.333333 0 0 0 21.333333-21.333333v-42.666667a21.333333 21.333333 0 0 0-21.333333-21.333333h-192a21.333333 21.333333 0 0 0-21.333334 21.333333v42.666667a21.333333 21.333333 0 0 0 21.333334 21.333333z m0-170.666667h85.333333a21.333333 21.333333 0 0 0 21.333333-21.333333v-42.666667a21.333333 21.333333 0 0 0-21.333333-21.333333h-85.333333a21.333333 21.333333 0 0 0-21.333334 21.333333v42.666667a21.333333 21.333333 0 0 0 21.333334 21.333333z m459.477333 86.144a95.68 95.68 0 1 1 0-191.36 95.68 95.68 0 0 1 0 191.36z"  horiz-adv-x="1024" />

    
    <glyph glyph-name="admin_new_phone" unicode="&#59185;" d="M810.666667 874.666667c23.573333 0 42.666667-19.2 42.666666-42.666667v-896c0-23.466667-19.093333-42.666667-42.666666-42.666667H213.333333c-23.573333 0-42.666667 19.2-42.666666 42.666667V832c0 23.466667 19.093333 42.666667 42.666666 42.666667z m-42.666667-85.333334H256v-810.666666h512V789.333333zM512 192a64 64 0 1 0 0-128 64 64 0 0 0 0 128z"  horiz-adv-x="1024" />

    
    <glyph glyph-name="admin_new_mail" unicode="&#59171;" d="M106.666667 768h810.666666a42.666667 42.666667 0 0 0 42.666667-42.666667v-682.666666a42.666667 42.666667 0 0 0-42.666667-42.666667H106.666667a42.666667 42.666667 0 0 0-42.666667 42.666667V725.333333a42.666667 42.666667 0 0 0 42.666667 42.666667z m42.666666-85.333333v-597.333334h725.333334V682.666667H149.333333z m361.365334-290.624l257.92 181.248a10.666667 10.666667 0 0 0 16.789333-8.725334v-63.061333a21.333333 21.333333 0 0 0-8.981333-17.386667l-250.154667-177.472a21.333333 21.333333 0 0 0-13.397333-3.904 21.248 21.248 0 0 0-15.509334 3.626667L247.274667 482.346667a21.333333 21.333333 0 0 0-9.045334 17.450666V564.48a10.666667 10.666667 0 0 0 16.832 8.704l255.637334-181.12z"  horiz-adv-x="1024" />

    
    <glyph glyph-name="admin_new_icon_icon_file" unicode="&#59172;" d="M794.346667 744.064c80.512-80.512 81.877333-210.197333 4.096-292.352l-4.096-4.224-299.946667-299.946667a126.186667 126.186667 0 0 0-181.717333 175.061334l3.264 3.413333 263.701333 263.68a42.666667 42.666667 0 0 0 62.506667-58.005333l-2.176-2.346667-263.68-263.68a40.853333 40.853333 0 0 1 55.424-59.946667l2.346666 2.176 299.946667 299.946667a124.373333 124.373333 0 0 1-172.458667 179.2l-3.434666-3.328-311.808-311.808A202.666667 202.666667 0 0 1 528.789333 81.28l4.138667 4.010667 226.453333 226.453333a42.666667 42.666667 0 0 0 62.506667-58.005333l-2.176-2.346667L593.28 24.96c-112.469333-112.469333-294.826667-112.469333-407.274667 0-110.933333 110.912-112.469333 289.770667-4.629333 402.56l4.629333 4.736L497.792 744.064c81.877333 81.877333 214.656 81.877333 296.554667 0z"  horiz-adv-x="1024" />

    
    <glyph glyph-name="admin_new_icon_copy" unicode="&#59173;" d="M213.333333 554.666667v-512h426.666667V554.666667H213.333333z m512 42.666666v-602.069333c0-20.949333-17.834667-37.930667-39.829333-37.930667H167.829333C145.834667-42.666667 128-25.685333 128-4.736V602.069333C128 623.018667 145.834667 640 167.829333 640H682.666667a42.666667 42.666667 0 0 0 42.666666-42.666667z m158.165334 200.832c7.722667-7.722667 12.501333-18.389333 12.501333-30.165333v-533.333333a21.333333 21.333333 0 0 0-21.333333-21.333334h-42.666667a21.333333 21.333333 0 0 0-21.333333 21.333334V725.333333H405.333333a21.333333 21.333333 0 0 0-21.333333 21.333334V789.333333a21.333333 21.333333 0 0 0 21.333333 21.333334h448c11.776 0 22.442667-4.778667 30.165334-12.501334z"  horiz-adv-x="1024" />

    
    <glyph glyph-name="admin_new_sign_success" unicode="&#59174;" d="M896 810.666667a42.666667 42.666667 0 0 0 42.56-39.466667L938.666667 768v-128a21.333333 21.333333 0 0 0-21.333334-21.333333h-42.666666a21.333333 21.333333 0 0 0-21.333334 21.333333V725.333333H170.666667v-682.666666h682.666666V469.333333a21.333333 21.333333 0 0 0 21.333334 21.333334h42.666666a21.333333 21.333333 0 0 0 21.333334-21.333334v-469.333333a42.666667 42.666667 0 0 0-39.466667-42.56L896-42.666667H128a42.666667 42.666667 0 0 0-42.56 39.466667L85.333333 0V768a42.666667 42.666667 0 0 0 39.466667 42.56L128 810.666667h768z m-162.453333-283.584l30.165333-30.165334a21.333333 21.333333 0 0 0 0-30.165333l-211.2-211.2-45.226667-45.248a21.333333 21.333333 0 0 0-30.186666 0l-150.848 150.826667a21.333333 21.333333 0 0 0 0 30.186666l30.165333 30.165334a21.333333 21.333333 0 0 0 30.165333 0l105.6-105.578667 211.2 211.2a21.333333 21.333333 0 0 0 30.165334 0z"  horiz-adv-x="1024" />

    
    <glyph glyph-name="admin_new_history" unicode="&#59175;" d="M512 853.333333c259.2 0 469.333333-210.133333 469.333333-469.333333s-210.133333-469.333333-469.333333-469.333333S42.666667 124.8 42.666667 384 252.8 853.333333 512 853.333333z m0-85.333333C299.925333 768 128 596.074667 128 384s171.925333-384 384-384 384 171.925333 384 384S724.074667 768 512 768z m-64-106.666667a21.333333 21.333333 0 0 0 21.333333 21.333334h42.666667a21.333333 21.333333 0 0 0 21.333333-21.333334v-277.333333h213.333334a21.333333 21.333333 0 0 0 21.333333-21.333333v-42.666667a21.333333 21.333333 0 0 0-21.333333-21.333333H469.333333a21.333333 21.333333 0 0 0-21.333333 21.333333V661.333333z"  horiz-adv-x="1024" />

    
    <glyph glyph-name="admin_new_edit" unicode="&#59167;" d="M917.333333-0.192a21.333333 21.333333 0 0 0 21.333334-21.333333v-42.666667a21.333333 21.333333 0 0 0-21.333334-21.333333H106.666667a21.333333 21.333333 0 0 0-21.333334 21.333333v42.666667a21.333333 21.333333 0 0 0 21.333334 21.333333h810.666666zM628.245333 776.832l146.602667-147.370667a42.666667 42.666667 0 0 0-0.085333-60.266666l-484.032-484.053334H128a42.666667 42.666667 0 0 0-42.666667 42.666667V290.56L537.941333 746.666667l-0.128 0.106666 30.08 30.08a42.666667 42.666667 0 0 0 60.352 0zM464.298667 552.533333L172.053333 254.549333l82.56-82.688h0.128l294.954667 295.253334-85.397333 85.397333z m132.416 135.018667l-72.661334-74.090667 85.973334-85.973333 73.109333 73.194667-86.4 86.869333z"  horiz-adv-x="1024" />

    
    <glyph glyph-name="admin_new_save" unicode="&#59168;" d="M256 725.333333H170.666667v-682.666666h682.666666V536.96a42.666667 42.666667 0 0 1-12.458666 30.122667l-145.28 145.706666A42.666667 42.666667 0 0 1 665.386667 725.333333H661.333333v-298.666666a42.666667 42.666667 0 0 0-42.666666-42.666667H298.666667a42.666667 42.666667 0 0 0-42.666667 42.666667V725.333333zM128 810.666667h562.773333a85.333333 85.333333 0 0 0 60.416-25.066667l162.56-162.986667A85.333333 85.333333 0 0 0 938.666667 562.346667V0a42.666667 42.666667 0 0 0-42.666667-42.666667H128a42.666667 42.666667 0 0 0-42.666667 42.666667V768a42.666667 42.666667 0 0 0 42.666667 42.666667z m384-341.333334h64V725.333333H341.333333v-256h85.333334v128a21.333333 21.333333 0 0 0 21.333333 21.333334h42.666667a21.333333 21.333333 0 0 0 21.333333-21.333334v-128z"  horiz-adv-x="1024" />

    
    <glyph glyph-name="admin_new_icon_man" unicode="&#59169;" d="M771.669333 704H682.666667a21.333333 21.333333 0 0 0-21.333334 21.333333V768a21.333333 21.333333 0 0 0 21.333334 21.333333h192a42.666667 42.666667 0 0 0 42.666666-42.666666v-192a21.333333 21.333333 0 0 0-21.333333-21.333334h-42.666667a21.333333 21.333333 0 0 0-21.333333 21.333334v89.002666l-135.68-135.68A339.84 339.84 0 0 0 768 298.666667c0-188.522667-152.810667-341.333333-341.333333-341.333334S85.333333 110.144 85.333333 298.666667s152.810667 341.333333 341.333334 341.333333a339.84 339.84 0 0 0 209.301333-71.68L771.648 704zM426.666667 42.666667c141.376 0 256 114.624 256 256s-114.624 256-256 256S170.666667 440.042667 170.666667 298.666667s114.624-256 256-256z"  horiz-adv-x="1024" />

    
    <glyph glyph-name="admin_new_icon_star" unicode="&#59170;" d="M268.437333-45.290667a35.562667 35.562667 0 0 0-50.773333 35.733334L243.562667 238.933333A35.562667 35.562667 0 0 1 234.666667 266.389333l-168.490667 187.456a35.562667 35.562667 0 0 0 19.008 58.538667l246.506667 52.608a35.562667 35.562667 0 0 1 23.36 16.96l126.186666 218.176a35.562667 35.562667 0 0 0 61.568 0l126.186667-218.176c5.034667-8.704 13.525333-14.869333 23.36-16.96l246.506667-52.608a35.562667 35.562667 0 0 0 19.008-58.538667l-168.490667-187.456c-6.72-7.466667-9.962667-17.450667-8.917333-27.456l25.898666-248.490666a35.562667 35.562667 0 0 0-50.773333-35.733334l-228.16 109.738667a35.562667 35.562667 0 0 1-30.805333 0l-228.16-109.738667z m191.146667 186.645334a120.896 120.896 0 0 0 104.810667 0l147.84-71.104-16.682667 159.829333a120.896 120.896 0 0 0 30.336 93.354667l110.976 123.456-162.346667 34.645333a120.896 120.896 0 0 0-79.402666 57.685333L512 682.901333l-83.114667-143.68a120.896 120.896 0 0 0-79.402666-57.685333l-162.346667-34.645333 110.976-123.456a120.896 120.896 0 0 0 30.336-93.354667l-16.682667-159.829333 147.84 71.104z"  horiz-adv-x="1024" />

    
    <glyph glyph-name="admin_new_icon_woman" unicode="&#59161;" d="M554.666667 173.312V128h106.666666a21.333333 21.333333 0 0 0 21.333334-21.333333v-42.666667a21.333333 21.333333 0 0 0-21.333334-21.333333h-106.666666v-106.666667a21.333333 21.333333 0 0 0-21.333334-21.333333h-42.666666a21.333333 21.333333 0 0 0-21.333334 21.333333v106.666667h-106.666666a21.333333 21.333333 0 0 0-21.333334 21.333333v42.666667a21.333333 21.333333 0 0 0 21.333334 21.333333h106.666666v45.312C300.949333 194.304 170.666667 337.92 170.666667 512 170.666667 700.522667 323.477333 853.333333 512 853.333333s341.333333-152.810667 341.333333-341.333333c0-174.08-130.282667-317.696-298.666666-338.688zM512 256c141.376 0 256 114.624 256 256S653.376 768 512 768s-256-114.624-256-256 114.624-256 256-256z"  horiz-adv-x="1024" />

    
    <glyph glyph-name="admin_new_qr_code" unicode="&#59162;" d="M192 405.333333h298.666667V704H192v-298.666667zM149.333333 789.333333h384a42.666667 42.666667 0 0 0 42.666667-42.666666v-384a42.666667 42.666667 0 0 0-42.666667-42.666667H149.333333a42.666667 42.666667 0 0 0-42.666666 42.666667V746.666667a42.666667 42.666667 0 0 0 42.666666 42.666666z m128-170.666666h128v-128h-128v128zM192 170.666667v-106.666667h106.666667v106.666667H192z m-42.666667 85.333333h192a42.666667 42.666667 0 0 0 42.666667-42.666667v-192a42.666667 42.666667 0 0 0-42.666667-42.666666H149.333333a42.666667 42.666667 0 0 0-42.666666 42.666666v192a42.666667 42.666667 0 0 0 42.666666 42.666667zM725.333333 704v-106.666667h106.666667V704h-106.666667z m-42.666666 85.333333h192a42.666667 42.666667 0 0 0 42.666666-42.666666v-192a42.666667 42.666667 0 0 0-42.666666-42.666667h-192a42.666667 42.666667 0 0 0-42.666667 42.666667V746.666667a42.666667 42.666667 0 0 0 42.666667 42.666666z m42.666666-618.666666v-106.666667h106.666667v106.666667h-106.666667z m-42.666666 85.333333h192a42.666667 42.666667 0 0 0 42.666666-42.666667v-192a42.666667 42.666667 0 0 0-42.666666-42.666666h-192a42.666667 42.666667 0 0 0-42.666667 42.666666v192a42.666667 42.666667 0 0 0 42.666667 42.666667z m-213.333334 0h85.333334v-85.333333h-85.333334v85.333333z m0-149.333333h85.333334v-128h-85.333334v128z m170.666667 320h85.333333v-85.333334h-85.333333v85.333334z m149.333333 0h128v-85.333334h-128v85.333334z"  horiz-adv-x="1024" />

    
    <glyph glyph-name="admin_new_icon_wallet" unicode="&#59163;" d="M896 554.666667v128H128v-597.333334h768v128h-170.666667a170.666667 170.666667 0 1 0 0 341.333334h170.666667zM92.074667 768h839.850666C959.232 768 981.333333 749.909333 981.333333 727.573333v-687.146666C981.333333 18.090667 959.210667 0 931.925333 0H92.074667C64.768 0 42.666667 18.090667 42.666667 40.426667V727.573333C42.666667 749.909333 64.789333 768 92.074667 768zM896 469.333333h-170.666667a85.333333 85.333333 0 1 1 0-170.666666h170.666667v170.666666z m-170.666667-42.666666a42.666667 42.666667 0 1 0 0-85.333334 42.666667 42.666667 0 0 0 0 85.333334z"  horiz-adv-x="1024" />

    
    <glyph glyph-name="admin_new_help" unicode="&#59164;" d="M512 853.333333c259.2 0 469.333333-210.133333 469.333333-469.333333s-210.133333-469.333333-469.333333-469.333333S42.666667 124.8 42.666667 384 252.8 853.333333 512 853.333333z m0-85.333333C299.925333 768 128 596.074667 128 384s171.925333-384 384-384 384 171.925333 384 384S724.074667 768 512 768z m-4.565333-521.322667c14.357333 0 26.730667-4.501333 36.522666-13.525333 9.130667-9.045333 14.336-20.629333 14.336-34.816 0-14.186667-5.205333-26.453333-14.336-35.456-10.453333-9.024-22.186667-13.546667-36.522666-13.546667a48.426667 48.426667 0 0 0-35.2 14.186667c-10.453333 9.024-15.018667 20.629333-15.018667 34.816 0 14.186667 4.565333 25.770667 14.997333 34.816 9.130667 9.024 20.885333 13.525333 35.221334 13.525333zM519.168 618.666667c42.389333 0 76.949333-10.965333 103.04-34.176C648.298667 561.941333 661.333333 530.986667 661.333333 491.669333c0-32.234667-8.469333-58.666667-24.128-79.296-3.52-3.882667-11.733333-11.690667-24.512-23.168l-39.765333-34.88c-7.616-7.445333-13.482667-15.786667-17.898667-24.469333a92.906667 92.906667 0 0 1-9.770666-42.56v-9.024h-74.986667v9.024c0 24.490667 3.904 45.781333 13.034667 63.189333 8.469333 17.408 33.92 44.48 76.288 81.856l7.829333 9.045334c11.733333 14.165333 17.621333 29.653333 17.621333 45.76 0 21.269333-6.528 38.037333-18.261333 50.282666-12.394667 12.245333-29.994667 18.048-52.181333 18.048-28.032 0-48.256-8.362667-61.290667-25.770666-11.093333-14.826667-16.298667-36.117333-16.298667-63.829334H362.666667c0 47.701333 13.696 85.098667 42.389333 112.170667C433.066667 605.141333 470.912 618.666667 519.189333 618.666667z"  horiz-adv-x="1024" />

    
    <glyph glyph-name="admin_new_ipad_meeting_room_screen" unicode="&#59165;" d="M216.661333-12.693333a21.333333 21.333333 0 0 0-30.144-1.578667l-31.701333 28.544a21.333333 21.333333 0 0 0-1.6 30.122667L266.88 170.666667H128c-23.573333 0-42.666667 20.010667-42.666667 44.693333V744.64C85.333333 769.322667 104.426667 789.333333 128 789.333333h768c23.573333 0 42.666667-20.010667 42.666667-44.693333v-529.28C938.666667 190.677333 919.573333 170.666667 896 170.666667h-138.88l113.664-126.272a21.333333 21.333333 0 0 0-1.6-30.122667l-31.701333-28.544a21.333333 21.333333 0 0 0-30.144 1.578667L642.346667 170.666667H381.632zM853.333333 704H170.666667v-448h682.666666V704zM533.546667 444.501333l24.597333-35.690666a15.210667 15.210667 0 0 0-3.904-21.141334l-0.384-0.256-115.285333-74.432a15.210667 15.210667 0 0 0-20.778667 4.16l-24.576 35.690667a15.210667 15.210667 0 0 0 3.904 21.141333l0.384 0.256 115.285333 74.432a15.210667 15.210667 0 0 0 20.778667-4.16z m85.376 55.104l24.576-35.690666a15.210667 15.210667 0 0 0-4.266667-21.397334l-23.082667-14.890666a15.210667 15.210667 0 0 0-20.778666 4.138666l-24.576 35.690667a15.210667 15.210667 0 0 0 3.904 21.162667l0.384 0.234666 23.061333 14.912a15.210667 15.210667 0 0 0 20.778667-4.16z m-1.386667 147.754667l1.386667-1.728 24.576-35.690667 0.256-0.384c4.138667-6.4 2.837333-14.762667-2.730667-19.669333l-1.813333-1.344-200.64-129.536a15.210667 15.210667 0 0 0-19.413334 2.432l-1.365333 1.728-24.576 35.690667-0.256 0.384a15.210667 15.210667 0 0 0 2.730667 19.648l1.813333 1.365333 200.64 129.536a15.210667 15.210667 0 0 0 19.413333-2.432z"  horiz-adv-x="1024" />

    
    <glyph glyph-name="admin_new_icon_done" unicode="&#59166;" d="M393.28 153.173333l467.626667 467.626667a21.333333 21.333333 0 0 0 30.186666 0l30.165334-30.165333a21.333333 21.333333 0 0 0 0-30.165334L408.362667 47.573333a21.333333 21.333333 0 0 0-30.165334 0L106.666667 319.104a21.333333 21.333333 0 0 0 0 30.186667l30.165333 30.165333a21.333333 21.333333 0 0 0 30.165333 0L393.28 153.173333z"  horiz-adv-x="1024" />

    
    <glyph glyph-name="admin_new_share" unicode="&#59147;" d="M533.333333 810.666667a21.333333 21.333333 0 0 0 21.333334-21.333334v-42.666666a21.333333 21.333333 0 0 0-21.333334-21.333334H170.666667v-682.666666h682.666666V405.333333a21.333333 21.333333 0 0 0 21.333334 21.333334h42.666666a21.333333 21.333333 0 0 0 21.333334-21.333334v-405.333333a42.666667 42.666667 0 0 0-39.466667-42.56L896-42.666667H128a42.666667 42.666667 0 0 0-42.56 39.466667L85.333333 0V768a42.666667 42.666667 0 0 0 39.466667 42.56L128 810.666667h405.333333z m364.224 0c20.650667 0 37.738667-15.210667 40.661334-35.029334l0.448-6.08V567.466667a19.2 19.2 0 0 0-19.2-19.2h-43.797334a19.2 19.2 0 0 0-19.2 19.2l-0.021333 102.890666-216.597333-216.618666a19.2 19.2 0 0 0-27.157334 0l-30.976 30.976a19.2 19.2 0 0 0 0 27.157333L798.314667 728.469333h-102.869334a19.2 19.2 0 0 0-19.2 19.2V791.466667a19.2 19.2 0 0 0 19.2 19.2h202.112z"  horiz-adv-x="1024" />

    
    <glyph glyph-name="admin_new_video_teach" unicode="&#59155;" d="M896 810.666667a42.666667 42.666667 0 0 0 42.56-39.466667L938.666667 768v-768a42.666667 42.666667 0 0 0-39.466667-42.56L896-42.666667H128a42.666667 42.666667 0 0 0-42.56 39.466667L85.333333 0V768a42.666667 42.666667 0 0 0 39.466667 42.56L128 810.666667h768zM170.666667 512v-469.333333h682.666666V512H170.666667z m309.184-112.597333l2.688-1.706667 123.733333-86.656c10.602667-7.296 17.130667-20.970667 17.066667-35.754667 0.064-13.568-5.397333-26.197333-14.506667-33.834666l-2.56-1.962667-123.754667-86.570667c-5.333333-3.733333-11.242667-5.610667-17.066666-5.610666-5.845333 0-11.712 1.877333-17.045334 5.610666-9.813333 6.848-15.978667 18.666667-16.938666 32.106667l-0.128 3.712v173.141333c0 14.933333 6.378667 28.352 17.066666 35.84a28.672 28.672 0 0 0 31.445334 1.685334zM563.157333 725.333333h-179.541333l79.232-126.72-2.069333-1.28h179.584l-79.210667 126.72 2.005333 1.28zM853.333333 725.333333h-192.384l79.232-126.72-2.069333-1.28H853.333333V725.333333zM170.666667 597.333333h192.362666l-79.210666 126.72 2.005333 1.28H170.666667v-128z"  horiz-adv-x="1024" />

    
    <glyph glyph-name="admin_new_exit" unicode="&#59149;" d="M746.666667 810.666667a21.333333 21.333333 0 0 0 21.333333-21.333334v-42.666666a21.333333 21.333333 0 0 0-21.333333-21.333334H170.666667v-682.666666h576a21.333333 21.333333 0 0 0 21.333333-21.333334v-42.666666a21.333333 21.333333 0 0 0-21.333333-21.333334H128a42.666667 42.666667 0 0 0-42.56 39.466667L85.333333 0V768a42.666667 42.666667 0 0 0 39.466667 42.56L128 810.666667h618.666667z m15.082666-230.570667l165.930667-165.930667a42.666667 42.666667 0 0 0 2.176-58.005333l-2.176-2.346667-165.930667-165.909333a21.333333 21.333333 0 0 0-30.165333 0l-30.165333 30.165333a21.333333 21.333333 0 0 0 0 30.165334L794.496 341.333333H405.333333a21.333333 21.333333 0 0 0-21.333333 21.333334v42.666666a21.333333 21.333333 0 0 0 21.333333 21.333334h389.162667l-93.077333 93.098666a21.333333 21.333333 0 0 0 0 30.165334l30.165333 30.165333a21.333333 21.333333 0 0 0 30.165333 0z"  horiz-adv-x="1024" />

    
    <glyph glyph-name="admin_new_ipad" unicode="&#59150;" d="M213.333333 768v-768h597.333334V768H213.333333zM170.666667 853.333333h682.666666c23.573333 0 42.666667-20.010667 42.666667-44.693333v-849.28C896-65.322667 876.906667-85.333333 853.333333-85.333333H170.666667c-23.573333 0-42.666667 20.010667-42.666667 44.693333V808.64C128 833.322667 147.093333 853.333333 170.666667 853.333333z m261.333333-170.666666h160c14.72 0 26.666667-9.557333 26.666667-21.333334v-42.666666c0-11.776-11.946667-21.333333-26.666667-21.333334h-160c-14.72 0-26.666667 9.557333-26.666667 21.333334v42.666666c0 11.776 11.946667 21.333333 26.666667 21.333334zM512 42.666667a64 64 0 1 1 0 128 64 64 0 0 1 0-128z"  horiz-adv-x="1024" />

    
    <glyph glyph-name="admin_new_emoji" unicode="&#59151;" d="M512 0c212.074667 0 384 171.925333 384 384S724.074667 768 512 768 128 596.074667 128 384s171.925333-384 384-384z m0-85.333333C252.8-85.333333 42.666667 124.8 42.666667 384S252.8 853.333333 512 853.333333s469.333333-210.133333 469.333333-469.333333-210.133333-469.333333-469.333333-469.333333z m85.333333 618.666666h85.333334v-128h-85.333334v128z m-256 0h85.333334v-128h-85.333334v128z m303.573334-234.666666h62.250666a15.168 15.168 0 0 0 13.568-22.016A234.645333 234.645333 0 0 0 512 149.333333a234.666667 234.666667 0 0 0-208.768 127.402667A15.04 15.04 0 0 0 316.586667 298.666667h62.506666a21.333333 21.333333 0 0 0 16.554667-7.893334c5.12-6.293333 9.344-11.072 12.736-14.314666A148.842667 148.842667 0 0 1 512 234.666667c40.512 0 77.226667 16.128 104.149333 42.304 3.242667 3.157333 7.296 7.744 12.16 13.781333A21.333333 21.333333 0 0 0 644.906667 298.666667z"  horiz-adv-x="1024" />

    
    <glyph glyph-name="admin_new_company" unicode="&#59152;" d="M682.666667 682.666667h170.666666a42.666667 42.666667 0 0 0 42.666667-42.666667v-682.666667a42.666667 42.666667 0 0 0-42.666667-42.666666H170.666667a42.666667 42.666667 0 0 0-42.666667 42.666666V713.642667a42.666667 42.666667 0 0 0 34.773333 41.941333l469.333334 88.234667A42.666667 42.666667 0 0 0 682.666667 801.92V682.666667z m0-85.333334v-597.333333h128V597.333333h-128z m-469.333334 76.970667V0h384V746.666667l-384-72.362667zM448 426.666667h42.666667a21.333333 21.333333 0 0 0 21.333333-21.333334v-128a21.333333 21.333333 0 0 0-21.333333-21.333333h-42.666667a21.333333 21.333333 0 0 0-21.333333 21.333333v128a21.333333 21.333333 0 0 0 21.333333 21.333334z"  horiz-adv-x="1024" />

    
    <glyph glyph-name="admin_new_icon_not_visible" unicode="&#59153;" d="M619.52 125.610667l64.149333-64.128C628.906667 34.709333 571.413333 21.333333 511.296 21.333333 330.624 21.333333 174.421333 142.186667 42.666667 383.914667c39.893333 75.306667 82.538667 138.858667 127.872 190.698666l55.786666-55.786666C192.554667 481.706667 159.786667 437.056 128 384.554667 245.781333 194.496 373.248 106.666667 511.36 106.666667c36.778667 0 72.832 6.229333 108.16 18.944z m176.576 125.141333c34.026667 37.077333 67.306667 81.578667 99.904 133.802667C780.458667 573.888 652.842667 661.333333 511.36 661.333333c-36.906667 0-72.789333-5.952-107.754667-18.090666l-64.426666 64.426666A394.282667 394.282667 0 0 0 511.274667 746.666667C695.530667 746.666667 852.202667 625.749333 981.333333 383.914667c-40.874667-74.453333-84.010667-137.429333-129.429333-188.970667l-55.808 55.808z m-265.301333-36.394667a170.666667 170.666667 0 0 0-188.437334 188.437334l188.437334-188.437334z m150.848 150.848l-188.437334 188.437334a170.666667 170.666667 0 0 0 188.437334-188.437334zM79.082667 786.752l30.165333 30.165333a21.333333 21.333333 0 0 0 30.186667 0l814.570666-814.592a21.333333 21.333333 0 0 0 0-30.165333l-30.165333-30.165333a21.333333 21.333333 0 0 0-30.165333 0L79.082667 756.565333a21.333333 21.333333 0 0 0 0 30.186667z"  horiz-adv-x="1024" />

    
    <glyph glyph-name="admin_new_contact" unicode="&#59154;" d="M896 832a42.666667 42.666667 0 0 0 42.666667-42.666667v-682.666666a42.666667 42.666667 0 0 0-42.666667-42.666667H677.930667l-137.386667-123.648a42.666667 42.666667 0 0 0-57.088 0L346.069333 64H128a42.666667 42.666667 0 0 0-42.666667 42.666667V789.333333a42.666667 42.666667 0 0 0 42.666667 42.666667h768z m-42.666667-85.333333H170.666667v-597.333334h208.149333L512 29.461333 645.184 149.333333H853.333333V746.666667z m-149.333333-362.666667a21.333333 21.333333 0 0 0 21.333333-21.333333v-42.666667a21.333333 21.333333 0 0 0-21.333333-21.333333H320a21.333333 21.333333 0 0 0-21.333333 21.333333v42.666667a21.333333 21.333333 0 0 0 21.333333 21.333333h384z m0 170.666667a21.333333 21.333333 0 0 0 21.333333-21.333334v-42.666666a21.333333 21.333333 0 0 0-21.333333-21.333334H320a21.333333 21.333333 0 0 0-21.333333 21.333334v42.666666a21.333333 21.333333 0 0 0 21.333333 21.333334h384z"  horiz-adv-x="1024" />

    
    <glyph glyph-name="admin_new_icon_image" unicode="&#59156;" d="M896 810.666667a42.666667 42.666667 0 0 0 42.56-39.466667L938.666667 768v-768a42.666667 42.666667 0 0 0-39.466667-42.56L896-42.666667H128a42.666667 42.666667 0 0 0-42.56 39.466667L85.333333 0V768a42.666667 42.666667 0 0 0 39.466667 42.56L128 810.666667h768z m-42.666667-85.333334H170.666667v-682.666666h682.666666V725.333333z m-90.325333-263.808a17.066667 17.066667 0 0 0 4.992-12.053333V140.8a12.8 12.8 0 0 0-12.8-12.8H436.245333a12.8 12.8 0 0 0-3.456 0.469333l-182.528 0.469334a12.8 12.8 0 0 0-9.002666 21.845333l176.32 176.341333a17.066667 17.066667 0 0 0 24.128 0l81.365333-81.365333 215.786667 215.765333a17.066667 17.066667 0 0 0 24.149333 0zM384 640v-128h-128v128h128z"  horiz-adv-x="1024" />

    
    <glyph glyph-name="admin_new_icon_arrange" unicode="&#59157;" d="M512.618667 224.490667l182.186666 95.893333c50.346667 26.496 90.090667-49.024 39.744-75.52s-90.090667 49.024-39.744 75.52l202.666667 106.666667c50.346667 26.496 90.090667-49.024 39.744-75.52l-405.333333-213.333334c-18.474667-9.706667-35.498667-5.717333-47.189334 4.565334L86.805333 352.170667a42.666667 42.666667 0 0 0 39.744 75.52l386.069334-203.2zM512 32.810667l182.805333 96.213333c50.346667 26.496 90.090667-49.024 39.744-75.52s-90.090667 49.024-39.744 75.52l202.666667 106.666667c50.346667 26.496 90.090667-49.024 39.744-75.52l-404.778667-213.034667a42.773333 42.773333 0 0 0-1.493333-0.768c-17.002667-8.533333-32.725333-5.504-44.096 3.264l-400.042667 210.56a42.666667 42.666667 0 0 0 39.744 75.498667L512 32.810667z m182.805333 96.213333l39.744-75.52-39.744 75.52z m0 191.36l39.744-75.52-39.744 75.52z m-162.346666 506.410667l414.549333-226.133334a21.333333 21.333333 0 0 0 0-37.461333L532.437333 337.066667a42.666667 42.666667 0 0 0-40.853333 0L77.013333 563.2a21.333333 21.333333 0 0 0 0 37.461333l414.570667 226.133334a42.666667 42.666667 0 0 0 40.853333 0zM512 740.736l-291.114667-158.805333L512 423.146667l291.136 158.784L512 740.736z"  horiz-adv-x="1024" />

    
    <glyph glyph-name="admin_new_bank_card" unicode="&#59158;" d="M960 768a42.666667 42.666667 0 0 0 42.666667-42.666667v-661.333333a42.666667 42.666667 0 0 0-42.666667-42.666667H64a42.666667 42.666667 0 0 0-42.666667 42.666667V725.333333a42.666667 42.666667 0 0 0 42.666667 42.666667z m-42.666667-298.666667H106.666667v-362.666666h810.666666V469.333333z m-85.333333-170.666666a21.333333 21.333333 0 0 0 21.333333-21.333334v-42.666666a21.333333 21.333333 0 0 0-21.333333-21.333334h-170.666667a21.333333 21.333333 0 0 0-21.333333 21.333334v42.666666a21.333333 21.333333 0 0 0 21.333333 21.333334h170.666667z m85.333333 384H106.666667v-128h810.666666v128z"  horiz-adv-x="1024" />

    
    <glyph glyph-name="admin_new_icon_visible" unicode="&#59159;" d="M511.36 106.666667C649.514667 106.666667 777.386667 194.56 896 384.554667 780.458667 573.888 652.842667 661.333333 511.36 661.333333 369.92 661.333333 242.730667 573.930667 128 384.554667 245.781333 194.496 373.248 106.666667 511.36 106.666667zM54.037333 404.757333c4.48 8.106667 8.149333 14.698667 11.029334 19.690667C188.928 639.274667 337.685333 746.666667 511.296 746.666667c174.357333 0 324.010667-108.288 449.002667-324.864 2.538667-4.373333 5.717333-10.026667 9.557333-16.938667a42.666667 42.666667 0 0 0-0.213333-41.749333c-3.413333-5.994667-6.272-10.922667-8.533334-14.805334C832.789333 130.325333 682.88 21.333333 511.274667 21.333333c-170.965333 0-320.021333 108.224-447.189334 324.693334a1196.074667 1196.074667 0 0 0-9.856 17.173333 42.666667 42.666667 0 0 0-0.213333 41.557333zM512 213.333333a170.666667 170.666667 0 1 0 0 341.333334 170.666667 170.666667 0 0 0 0-341.333334z m0 85.333334a85.333333 85.333333 0 1 1 0 170.666666 85.333333 85.333333 0 0 1 0-170.666666z"  horiz-adv-x="1024" />

    
    <glyph glyph-name="admin_new_earth" unicode="&#59160;" d="M576.725333-59.349333l-0.725333-0.106667c-3.904-0.554667-7.808-1.066667-11.733333-1.536l-0.469334-0.042667a447.36 447.36 0 0 0-38.976-2.773333l-5.333333-0.128L512-64C264.576-64 64 136.576 64 384c0 144 67.946667 272.149333 173.546667 354.133333l-9.045334-7.210666a450.581333 450.581333 0 0 0 51.370667 36.330666l2.261333 1.344a448.234667 448.234667 0 0 0 11.392 6.613334l4.544 2.517333A445.994667 445.994667 0 0 0 512 832a446.464 446.464 0 0 0 319.168-133.632A446.570667 446.570667 0 0 0 960 384a446.144 446.144 0 0 0-58.176-220.928l-0.384-0.661333c-3.562667-6.272-7.274667-12.437333-11.136-18.496l-0.554667-0.853334a448.405333 448.405333 0 0 0-54.826666-69.589333 447.232 447.232 0 0 0-232.917334-128.426667l-1.194666-0.234666c-3.434667-0.704-6.890667-1.344-10.368-1.962667l11.562666 2.197333a445.802667 445.802667 0 0 0-23.808-4.181333l-1.493333-0.213333zM251.648 644.373333A367.018667 367.018667 0 0 1 143.786667 384c0-203.370667 164.842667-368.213333 368.213333-368.213333 2.709333 0 5.397333 0.021333 8.106667 0.085333a54.144 54.144 0 0 1-6.4 9.386667c-14.250667 17.066667-36.778667 24.128-62.890667 32.533333-37.696 11.946667-84.608 27.029333-107.648 78.72a626.133333 626.133333 0 0 1-9.066667 19.946667c-25.301333 54.698667-63.552 137.472 15.466667 185.621333 44.501333 27.029333 93.248 17.066667 133.226667 9.173333 24.64-4.970667 47.957333-9.685333 61.824-4.437333 52.48 19.669333 95.914667 3.797333 127.637333-7.893333 17.578667-6.4 32.768-11.925333 42.24-9.301334a178.773333 178.773333 0 0 0 73.386667 3.157334c8.554667-1.28 17.216-1.898667 25.856-1.834667 26.624 1.344 45.930667-3.093333 60.650666-12.544 3.84 21.269333 5.824 43.2 5.824 65.6 0 91.690667-33.493333 175.530667-88.96 240-34.837333-30.464-77.525333-22.186667-106.752-16.106667-34.901333 6.677333-48.362667 7.616-63.552-8.405333-25.173333-26.24-51.157333-60.074667-73.941333-89.472-53.290667-67.84-84.48-109.013333-124.437333-104.96a47.189333 47.189333 0 0 0-34.24 19.562667c-13.312 19.797333-8 41.984-2.389334 63.36 9.728 36.864 8.917333 48.682667-4.266666 57.6a245.930667 245.930667 0 0 1-51.690667 27.797333 141.312 141.312 0 0 0-65.557333 48.426667 98.602667 98.602667 0 0 0-12.778667 22.570666z m137.216-365.248c-16.789333-10.112-17.194667-24.810667 13.333333-91.84 3.328-7.082667 6.528-14.165333 9.6-21.12 9.045333-20.48 27.434667-27.157333 61.653334-38.058666 31.061333-9.834667 69.546667-22.186667 97.813333-55.893334 11.989333-14.293333 20.224-29.994667 25.386667-46.656a368.96 368.96 0 0 1 248.426666 201.237334 164.608 164.608 0 0 1-1.898666 5.76 75.285333 75.285333 0 0 1-11.306667 24.533333h-15.061333c-12.842667-0.277333-25.685333 0.618667-38.378667 2.602667a109.952 109.952 0 0 1-43.946667-0.789334c-33.322667-9.301333-62.912 1.578667-89.024 11.157334-30.101333 11.029333-49.813333 17.322667-74.453333 8-34.517333-13.12-71.296-5.504-103.808 1.066666-32.512 6.549333-59.413333 12.053333-78.336 0zM512 752.213333a366.506667 366.506667 0 0 1-191.146667-53.44 86.421333 86.421333 0 0 0-0.597333-7.445333c0-15.36 0-18.88 2.773333-22.442667a68.138667 68.138667 0 0 1 35.84-26.24c23.210667-9.237333 45.248-21.077333 65.706667-35.285333a93.482667 93.482667 0 0 0 43.157333-76.736c6.656 8.384 13.333333 16.917333 19.328 24.533333 23.850667 30.826667 50.88 65.6 78.592 94.976 45.184 47.765333 98.346667 37.525333 133.248 30.72 19.797333-3.84 29.781333-5.013333 35.925334-3.690666A366.506667 366.506667 0 0 1 512 752.213333z"  horiz-adv-x="1024" />

    
    <glyph glyph-name="admin_new_description" unicode="&#59137;" d="M213.333333 768v-768h597.333334V768H213.333333zM170.666667 853.333333h682.666666c23.573333 0 42.666667-20.010667 42.666667-44.693333v-849.28C896-65.322667 876.906667-85.333333 853.333333-85.333333H170.666667c-23.573333 0-42.666667 20.010667-42.666667 44.693333V808.64C128 833.322667 147.093333 853.333333 170.666667 853.333333z m149.333333-256h128a21.333333 21.333333 0 0 0 21.333333-21.333333v-42.666667a21.333333 21.333333 0 0 0-21.333333-21.333333h-128a21.333333 21.333333 0 0 0-21.333333 21.333333v42.666667a21.333333 21.333333 0 0 0 21.333333 21.333333z m0-170.666666h384a21.333333 21.333333 0 0 0 21.333333-21.333334v-42.666666a21.333333 21.333333 0 0 0-21.333333-21.333334H320a21.333333 21.333333 0 0 0-21.333333 21.333334v42.666666a21.333333 21.333333 0 0 0 21.333333 21.333334z m0-170.666667h384a21.333333 21.333333 0 0 0 21.333333-21.333333v-42.666667a21.333333 21.333333 0 0 0-21.333333-21.333333H320a21.333333 21.333333 0 0 0-21.333333 21.333333v42.666667a21.333333 21.333333 0 0 0 21.333333 21.333333z"  horiz-adv-x="1024" />

    
    <glyph glyph-name="admin_new_building" unicode="&#59138;" d="M640 0V768H213.333333v-768h426.666667z m85.333333 682.666667h128a42.666667 42.666667 0 0 0 42.666667-42.666667v-682.666667a42.666667 42.666667 0 0 0-42.666667-42.666666H173.952C148.565333-85.333333 128-64.32 128-38.4V806.4C128 832.32 148.565333 853.333333 173.952 853.333333h505.429333C704.768 853.333333 725.333333 832.32 725.333333 806.4V682.666667z m0-85.333334v-597.333333h85.333334V597.333333h-85.333334z m-426.666666 0h85.333333v-85.333333h-85.333333v85.333333z m170.666666 0h85.333334v-85.333333h-85.333334v85.333333z m-170.666666-170.666666h85.333333v-85.333334h-85.333333v85.333334z m170.666666 0h85.333334v-85.333334h-85.333334v85.333334z m-106.666666-256h128a21.333333 21.333333 0 0 0 21.333333-21.333334v-149.333333h-170.666667v149.333333a21.333333 21.333333 0 0 0 21.333334 21.333334z"  horiz-adv-x="1024" />

    
    <glyph glyph-name="admin_new_verification" unicode="&#59139;" d="M853.333333 832a42.666667 42.666667 0 0 0 42.56-39.466667L896 789.333333v-426.666666a21.333333 21.333333 0 0 0-21.333333-21.333334h-42.666667a21.333333 21.333333 0 0 0-21.333333 21.333334V746.666667H213.333333v-725.333334h298.666667a21.333333 21.333333 0 0 0 21.333333-21.333333v-42.666667a21.333333 21.333333 0 0 0-21.333333-21.333333H170.666667a42.666667 42.666667 0 0 0-42.56 39.466667L128-21.333333V789.333333a42.666667 42.666667 0 0 0 39.466667 42.56L170.666667 832h682.666666zM320 597.333333h384a21.333333 21.333333 0 0 0 21.333333-21.333333v-42.666667a21.333333 21.333333 0 0 0-21.333333-21.333333H320a21.333333 21.333333 0 0 0-21.333333 21.333333v42.666667a21.333333 21.333333 0 0 0 21.333333 21.333333zM320 426.666667h234.666667a21.333333 21.333333 0 0 0 21.333333-21.333334v-42.666666a21.333333 21.333333 0 0 0-21.333333-21.333334H320a21.333333 21.333333 0 0 0-21.333333 21.333334v42.666666a21.333333 21.333333 0 0 0 21.333333 21.333334zM320 256h149.333333a21.333333 21.333333 0 0 0 21.333334-21.333333v-42.666667a21.333333 21.333333 0 0 0-21.333334-21.333333h-149.333333a21.333333 21.333333 0 0 0-21.333333 21.333333v42.666667a21.333333 21.333333 0 0 0 21.333333 21.333333zM807.509333 283.136a168.874667 168.874667 0 0 0 37.653334-221.909333L917.333333-10.922667l-53.077333-53.056-72.149333 72.149334a168.874667 168.874667 0 1 0 15.402666 274.986666z m-105.322666-38.186667a93.824 93.824 0 1 1 0-187.626666 93.824 93.824 0 0 1 0 187.648z"  horiz-adv-x="1024" />

    
    <glyph glyph-name="admin_new_del" unicode="&#59140;" d="M341.333333 725.333333V768a42.666667 42.666667 0 0 0 42.666667 42.666667h256a42.666667 42.666667 0 0 0 42.666667-42.666667v-42.666667h228.650666c9.514667 0 12.949333-0.981333 16.426667-2.858666 3.477333-1.856 6.208-4.586667 8.064-8.064 1.877333-3.477333 2.858667-6.912 2.858667-16.426667v-30.634667c0-9.514667-0.981333-12.949333-2.858667-16.426666a19.392 19.392 0 0 0-8.064-8.064c-3.477333-1.877333-6.912-2.858667-16.426667-2.858667H853.333333v-640a42.666667 42.666667 0 0 0-42.666666-42.666667H213.333333a42.666667 42.666667 0 0 0-42.666666 42.666667V640H112.682667c-9.514667 0-12.949333 0.981333-16.426667 2.858667a19.392 19.392 0 0 0-8.064 8.064c-1.877333 3.477333-2.858667 6.912-2.858667 16.426666V697.984c0 9.514667 0.981333 12.949333 2.858667 16.426667a19.392 19.392 0 0 0 8.064 8.064c3.477333 1.877333 6.912 2.858667 16.426667 2.858666H341.333333z m-85.333333-85.333333v-597.333333h512V640H256z m149.333333-128h42.666667a21.333333 21.333333 0 0 0 21.333333-21.333333v-298.666667a21.333333 21.333333 0 0 0-21.333333-21.333333h-42.666667a21.333333 21.333333 0 0 0-21.333333 21.333333V490.666667a21.333333 21.333333 0 0 0 21.333333 21.333333z m170.666667 0h42.666667a21.333333 21.333333 0 0 0 21.333333-21.333333v-298.666667a21.333333 21.333333 0 0 0-21.333333-21.333333h-42.666667a21.333333 21.333333 0 0 0-21.333333 21.333333V490.666667a21.333333 21.333333 0 0 0 21.333333 21.333333z"  horiz-adv-x="1024" />

    
    <glyph glyph-name="admin_new_link" unicode="&#59141;" d="M534.442667 520.469333c18.261333-7.637333 35.733333-17.984 51.904-31.061333 91.562667-74.133333 105.664-208.469333 31.530666-300.053333l-120.832-149.205334c-74.154667-91.562667-208.490667-105.685333-300.053333-31.530666S91.306667 217.109333 165.461333 308.672l115.562667 142.72 3.690667-35.050667a148.693333 148.693333 0 0 1 23.808-66.602666l-76.736-94.784A128 128 0 1 1 430.72 93.866667l120.832 149.226666a128 128 0 0 1-74.794667 206.165334l57.685334 71.253333z m-64.32-269.013333a213.418667 213.418667 0 0 0-51.904 31.082667c-91.562667 74.133333-105.685333 208.469333-31.530667 300.032l120.832 149.226666c74.133333 91.562667 208.469333 105.685333 300.032 31.530667s105.685333-208.490667 31.552-300.053333l-115.562667-142.72-3.690666 35.050666a148.693333 148.693333 0 0 1-23.808 66.602667l76.736 94.784a128 128 0 0 1-198.954667 161.088l-120.832-149.205333a128 128 0 0 1 74.794667-206.165334l-57.664-71.253333z"  horiz-adv-x="1024" />

    
    <glyph glyph-name="admin_new_calendar" unicode="&#59142;" d="M768 746.666667h128a42.666667 42.666667 0 0 0 42.666667-42.666667v-725.333333a42.666667 42.666667 0 0 0-42.666667-42.666667H128a42.666667 42.666667 0 0 0-42.666667 42.666667V704a42.666667 42.666667 0 0 0 42.666667 42.666667h128V789.333333a21.333333 21.333333 0 0 0 21.333333 21.333334h42.666667a21.333333 21.333333 0 0 0 21.333333-21.333334v-42.666666h341.333334V789.333333a21.333333 21.333333 0 0 0 21.333333 21.333334h42.666667a21.333333 21.333333 0 0 0 21.333333-21.333334v-42.666666z m0-85.333334v-42.666666a21.333333 21.333333 0 0 0-21.333333-21.333334h-42.666667a21.333333 21.333333 0 0 0-21.333333 21.333334v42.666666H341.333333v-42.666666a21.333333 21.333333 0 0 0-21.333333-21.333334h-42.666667a21.333333 21.333333 0 0 0-21.333333 21.333334v42.666666H170.666667v-640h682.666666V661.333333h-85.333333z m-298.666667-170.666666h85.333334a21.333333 21.333333 0 0 0 21.333333-21.333334v-85.333333a21.333333 21.333333 0 0 0-21.333333-21.333333h-85.333334a21.333333 21.333333 0 0 0-21.333333 21.333333v85.333333a21.333333 21.333333 0 0 0 21.333333 21.333334z m213.333334 0h85.333333a21.333333 21.333333 0 0 0 21.333333-21.333334v-85.333333a21.333333 21.333333 0 0 0-21.333333-21.333333h-85.333333a21.333333 21.333333 0 0 0-21.333334 21.333333v85.333333a21.333333 21.333333 0 0 0 21.333334 21.333334zM469.333333 277.333333h85.333334a21.333333 21.333333 0 0 0 21.333333-21.333333v-85.333333a21.333333 21.333333 0 0 0-21.333333-21.333334h-85.333334a21.333333 21.333333 0 0 0-21.333333 21.333334v85.333333a21.333333 21.333333 0 0 0 21.333333 21.333333z m-213.333333 0h85.333333a21.333333 21.333333 0 0 0 21.333334-21.333333v-85.333333a21.333333 21.333333 0 0 0-21.333334-21.333334h-85.333333a21.333333 21.333333 0 0 0-21.333333 21.333334v85.333333a21.333333 21.333333 0 0 0 21.333333 21.333333z m426.666667 0h85.333333a21.333333 21.333333 0 0 0 21.333333-21.333333v-85.333333a21.333333 21.333333 0 0 0-21.333333-21.333334h-85.333333a21.333333 21.333333 0 0 0-21.333334 21.333334v85.333333a21.333333 21.333333 0 0 0 21.333334 21.333333z"  horiz-adv-x="1024" />

    
    <glyph glyph-name="admin_new_text" unicode="&#59143;" d="M511.936 298.666667h-270.72L149.461333 35.136a20.586667 20.586667 0 0 0-19.562666-13.802667H84.266667a22.08 22.08 0 0 0-21.952 21.333334 21.034667 21.034667 0 0 0 1.152 7.509333L307.989333 754.133333a20.586667 20.586667 0 0 0 19.562667 13.824h72.618667c8.917333 0 17.045333-5.546667 20.394666-13.888l282.453334-703.978666A20.8 20.8 0 0 0 683.84 21.333333H638.293333c-8.896 0-17.024 5.546667-20.373333 13.866667L511.936 298.666667z m-145.066667 360.810666L270.933333 384h206.698667l-110.784 275.477333zM558.72 725.333333h383.893333a21.333333 21.333333 0 0 0 21.333334-21.333333v-42.666667a21.333333 21.333333 0 0 0-21.333334-21.333333H575.658667a21.333333 21.333333 0 0 0-19.84 13.461333l-16.917334 42.666667A21.333333 21.333333 0 0 0 558.741333 725.333333z m103.530667-277.333333h277.205333a21.333333 21.333333 0 0 0 21.333333-21.333333v-42.666667a21.333333 21.333333 0 0 0-21.333333-21.333333H679.381333a21.333333 21.333333 0 0 0-19.818666 13.397333l-17.109334 42.666667A21.333333 21.333333 0 0 0 662.272 448z m111.573333-298.666667h170.453333a21.333333 21.333333 0 0 0 21.333334-21.333333v-42.666667a21.333333 21.333333 0 0 0-21.333334-21.333333h-152.213333a21.333333 21.333333 0 0 0-19.626667 12.949333l-18.218666 42.666667a21.333333 21.333333 0 0 0 19.626666 29.717333z"  horiz-adv-x="1024" />

    
    <glyph glyph-name="admin_new_icon_quick" unicode="&#59144;" d="M556.714667 722.538667L243.754667 384l218.602666-37.205333V60.16l301.12 353.173333-206.762666 33.173334V722.538667z m80.938666-214.464l201.173334-30.464c7.552-1.130667 14.677333-4.266667 20.565333-9.066667a40.96 40.96 0 0 0 5.525333-58.453333l-406.698666-480.426667a42.624 42.624 0 0 0-32.554667-14.997333c-23.36 0-42.304 18.56-42.304 41.493333v320L162.389333 317.44a42.624 42.624 0 0 0-20.693333 10.218667 40.96 40.96 0 0 0-2.538667 58.624L564.202667 839.914667A42.666667 42.666667 0 0 0 595.349333 853.333333c23.36 0 42.304-18.56 42.304-41.493333v-303.786667z"  horiz-adv-x="1024" />

    
    <glyph glyph-name="admin_new_icon_browser" unicode="&#59145;" d="M512 853.333333c259.2 0 469.333333-210.133333 469.333333-469.333333s-210.133333-469.333333-469.333333-469.333333S42.666667 124.8 42.666667 384 252.8 853.333333 512 853.333333z m148.266667-512H364.928c9.386667-116.629333 58.453333-228.842667 147.2-336.64 89.322667 107.797333 138.688 220.010667 148.138667 336.64z m-380.949334 0H130.346667c17.706667-160.128 133.845333-290.56 286.570666-329.472-83.413333 97.92-129.258667 207.744-137.6 329.450667z m614.336 0h-147.669333c-7.978667-125.397333-53.077333-234.901333-135.253333-328.533333C761.6 52.821333 876.074667 182.464 893.653333 341.333333zM418.197333 756.48l-1.749333-0.469333C263.957333 716.970667 148.010667 586.624 130.346667 426.666667h149.184c8.96 121.237333 55.189333 231.168 138.666666 329.813333z m93.973334 6.037333l-4.181334-5.12C422.378667 651.050667 374.741333 540.8 365.098667 426.666667h294.997333c-9.877333 115.968-59.178667 227.925333-147.925333 335.872z m97.088-6.933333l4.288-4.928c79.701333-93.248 123.797333-201.258667 132.245333-323.989333h147.861333c-17.6 159.36-132.736 289.322667-284.373333 328.917333z"  horiz-adv-x="1024" />

    
    <glyph glyph-name="admin_new_save_icon" unicode="&#59146;" d="M486.336 867.157333a40.746667 40.746667 0 0 0 46.976 0.106667l22.976-16.149333c1.770667-1.258667 3.434667-2.624 4.992-4.138667-2.581333 2.517333 0.341333 0.448-2.602667 2.453333l0.426667-0.277333 1.621333-1.088 2.346667-1.557333 2.645333-1.706667c7.957333-5.12 17.408-10.88 28.117334-16.981333a807.018667 807.018667 0 0 1 102.912-49.194667c35.392-13.952 73.173333-23.317333 110.72-28.864 13.205333-1.962667 25.408-3.285333 36.266666-4.096 6.272-0.469333 11.562667-0.725333 12.8-0.725333l38.037334-0.597334a40.746667 40.746667 0 0 0 40.085333-40.704v-1.024l0.021333-38.165333 0.042667-93.44 0.021333-45.162667v-41.237333l0.042667-77.994667v-78.698666l-0.021333-0.981334v-0.298666c-0.298667-196.138667-251.413333-429.44-424.768-429.44C336.618667-102.784 85.333333 130.816 85.333333 327.018667V703.616a40.746667 40.746667 0 0 0 40.085334 40.725333l38.784 0.597334c0.554667 0 5.866667 0.256 12.117333 0.725333 10.858667 0.810667 23.04 2.133333 36.266667 4.096 37.525333 5.546667 75.306667 14.912 110.592 28.842667a816.085333 816.085333 0 0 1 102.933333 49.28c18.005333 10.24 34.197333 20.650667 37.44 23.125333z m23.594667-83.136c-7.338667-5.205333-24.682667-16.192-43.52-26.901333a897.216 897.216 0 0 0-113.28-54.272c-41.642667-16.426667-85.333333-27.264-128.64-33.685333-24.725333-3.626667-47.146667-5.44-57.706667-5.653334v-336.512C166.784 177.173333 380.330667-21.333333 509.994667-21.333333c129.749333 0 343.317333 198.485333 343.317333 348.330666V340.48l0.021333 2.666667v42.645333l-0.021333 89.045333-0.021333 40.448-0.021334 55.68-0.042666 92.565334c-11.328 0.256-33.386667 2.048-57.664 5.632-43.306667 6.4-86.997333 17.237333-128.704 33.706666-65.984 26.026667-134.037333 63.744-156.928 81.152z m169.514666-256.938666l30.165334-30.165334a21.333333 21.333333 0 0 0 0-30.165333L528.746667 285.866667a21.76 21.76 0 0 0-0.149334-0.149334l-30.165333-30.165333a21.226667 21.226667 0 0 0-11.306667-5.909333l-2.517333-0.298667h-2.517333a21.248 21.248 0 0 0-13.824 6.208l-120.682667 120.682667a21.333333 21.333333 0 0 0 0 30.165333l30.165333 30.165333a21.333333 21.333333 0 0 0 30.165334 0l75.434666-75.413333 165.930667 165.930667a21.333333 21.333333 0 0 0 30.165333 0z"  horiz-adv-x="1024" />

    
    <glyph glyph-name="admin_new_apple" unicode="&#59148;" d="M603.264 838.229333a70.4 70.4 0 0 0 74.752-62.869333c5.76-54.869333-22.314667-111.872-65.365333-149.674667 26.069333 6.72 49.237333 9.130667 74.026666 6.826667l12.778667-0.853333c64.042667-5.845333 130.837333-35.946667 176.938667-101.12a41.322667 41.322667 0 0 0-12.16-59.093334c2.645333 1.6-32.405333-10.325333-41.557334-18.176-19.882667-17.024-32.917333-50.368-32.554666-108.906666 0.661333-57.92 57.258667-114.197333 92.053333-129.728a41.322667 41.322667 0 0 0 22.229333-51.2l-5.76-16.213334c-0.917333-2.389333-1.834667-4.736-2.837333-7.189333l-7.530667-17.28a521.642667 521.642667 0 0 0-49.28-86.144c-60.224-85.397333-97.898667-119.466667-165.717333-120.704-25.066667-0.490667-43.754667 3.285333-67.285333 12.138667l-28.8 11.648c-18.304 7.082667-30.08 9.514667-48.021334 9.514666-19.2 0-31.829333-2.56-51.349333-10.026666l-30.293333-12.074667c-20.906667-7.765333-37.461333-11.498667-59.093334-12.330667-67.434667-2.389333-109.333333 35.562667-172.117333 123.52-98.133333 136.917333-134.741333 337.493333-56.938667 468.138667 45.461333 76.330667 126.72 124.032 214.442667 125.290667 25.088 0.426667 47.381333-4.032 75.818667-13.738667a70.122667 70.122667 0 0 0-8.746667 28.330667c-7.808 89.322667 72.533333 185.856 162.346667 191.914666z m64.768-287.594666l-8.533333-0.426667c-17.450667-1.493333-37.056-6.826667-62.826667-16.256l-31.189333-11.456-15.530667-5.077333c-11.861333-3.413333-22.016-5.226667-32.213333-5.226667-13.056 0-26.026667 2.752-41.493334 7.850667l-9.386666 3.242666-36.992 14.016c-23.573333 8.469333-39.445333 12.032-54.741334 11.776-58.88-0.853333-113.813333-33.109333-144.704-84.928-58.24-97.856-27.776-264.832 53.162667-377.792l16.490667-22.4c36.650667-48.149333 61.077333-67.413333 85.290666-66.56 11.84 0.426667 20.970667 2.496 34.901334 7.786667l29.994666 11.946667c27.477333 10.346667 48.682667 14.741333 78.912 14.741333 29.077333 0 49.578667-4.309333 75.946667-14.357333l29.653333-11.989334c14.4-5.418667 23.829333-7.232 36.949334-6.954666 27.306667 0.490667 48.618667 16.746667 83.776 63.68l15.957333 22.037333c12.586667 17.770667 23.466667 36.074667 32.746667 54.314667l10.453333 22.037333a355.008 355.008 0 0 0-36.8 31.616c-42.944 42.709333-69.76 93.184-70.4 151.381333-0.490667 76.16 18.794667 130.688 53.696 165.290667l7.722667 7.125333 3.925333 3.242667c-27.776 20.053333-60.266667 29.546667-90.837333 30.677333l-13.930667 0.64zM608 768c-50.474667-3.413333-101.333333-65.493333-96.96-115.541333C560.725333 656.810667 613.333333 717.205333 608 768z"  horiz-adv-x="1024" />

    
    <glyph glyph-name="admin_new_icon_local" unicode="&#59131;" d="M853.333333 448c0 188.522667-152.810667 341.333333-341.333333 341.333333S170.666667 636.522667 170.666667 448c0-140.074667 110.165333-292.010667 341.397333-451.946667C743.210667 155.626667 853.333333 307.52 853.333333 448zM535.744-91.008a42.666667 42.666667 0 0 0-47.466667 0.021333C219.648 89.109333 85.333333 268.8 85.333333 448 85.333333 683.648 276.352 874.666667 512 874.666667s426.666667-191.018667 426.666667-426.666667c0-179.669333-134.314667-359.338667-402.922667-539.008zM512 277.333333a170.666667 170.666667 0 1 0 0 341.333334 170.666667 170.666667 0 0 0 0-341.333334z m0 85.333334a85.333333 85.333333 0 1 1 0 170.666666 85.333333 85.333333 0 0 1 0-170.666666z"  horiz-adv-x="1024" />

    
    <glyph glyph-name="admin_new_gift" unicode="&#59132;" d="M896 704a42.666667 42.666667 0 0 0 42.666667-42.666667v-213.333333a42.666667 42.666667 0 0 0-42.666667-42.666667l-42.666667 0.021334V0a42.666667 42.666667 0 0 0-39.466666-42.56L810.666667-42.666667H213.333333a42.666667 42.666667 0 0 0-42.666666 42.666667V405.354667L149.333333 405.333333a42.666667 42.666667 0 0 0-42.56 39.466667L106.666667 448V661.333333a42.666667 42.666667 0 0 0 42.666666 42.666667z m-128-298.666667H256v-362.666666h512V405.333333z m85.333333 213.333334H192v-128h661.333333v128zM310.144 848.085333c43.178667-23.509333 115.626667-60.458667 137.813333-73.6C477.888 756.565333 477.888 725.333333 438.378667 725.333333h-144.981334C253.866667 725.333333 253.866667 764.373333 257.472 794.517333c3.584 30.122667 14.997333 74.026667 52.693333 53.546667z m456.384-53.546666C770.112 764.330667 770.112 725.333333 730.602667 725.333333h-144.981334c-39.509333 0-39.509333 31.232-9.578666 49.152 22.186667 13.141333 94.634667 50.090667 137.813333 73.6 37.674667 20.48 49.066667-23.445333 52.672-53.546666z"  horiz-adv-x="1024" />

    
    <glyph glyph-name="admin_new_meeting_room" unicode="&#59133;" d="M874.666667 768a42.666667 42.666667 0 0 0 42.666666-42.666667v-490.666666a42.666667 42.666667 0 0 0-42.666666-42.666667H615.018667l168.064-168.085333a21.333333 21.333333 0 0 0 0-30.165334l-30.165334-30.165333a21.333333 21.333333 0 0 0-30.165333 0L512 174.293333l-210.752-210.730666a21.333333 21.333333 0 0 0-28.16-1.770667l-2.005333 1.770667-30.165334 30.165333a21.333333 21.333333 0 0 0 0 30.165333L408.96 192H149.333333a42.666667 42.666667 0 0 0-42.56 39.466667L106.666667 234.666667V725.333333a42.666667 42.666667 0 0 0 42.666666 42.666667z m-42.666667-85.333333H192v-405.333334h640V682.666667z m-469.333333-128a21.333333 21.333333 0 0 0 21.333333-21.333334v-170.666666a21.333333 21.333333 0 0 0-21.333333-21.333334h-42.666667a21.333333 21.333333 0 0 0-21.333333 21.333334v170.666666a21.333333 21.333333 0 0 0 21.333333 21.333334h42.666667z m170.666666 64a21.333333 21.333333 0 0 0 21.333334-21.333334v-234.666666a21.333333 21.333333 0 0 0-21.333334-21.333334h-42.666666a21.333333 21.333333 0 0 0-21.333334 21.333334V597.333333a21.333333 21.333333 0 0 0 21.333334 21.333334h42.666666z m170.666667 0a21.333333 21.333333 0 0 0 21.333333-21.333334v-234.666666a21.333333 21.333333 0 0 0-21.333333-21.333334h-42.666667a21.333333 21.333333 0 0 0-21.333333 21.333334V597.333333a21.333333 21.333333 0 0 0 21.333333 21.333334h42.666667z"  horiz-adv-x="1024" />

    
    <glyph glyph-name="admin_new_department" unicode="&#59134;" d="M512 832a149.333333 149.333333 0 0 0 42.688-292.48v-93.205333c173.866667-13.738667 315.413333-110.549333 338.133333-239.210667a128.021333 128.021333 0 1 0-86.954666-2.858667c-22.464 78.784-122.453333 144.384-251.178667 156.437334v-154.645334a128 128 0 1 0-85.333333 0v154.666667c-128.768-12.053333-228.757333-77.653333-251.264-156.48a128 128 0 1 0-86.912 2.922667C153.898667 335.744 295.466667 432.576 469.333333 446.293333V539.52A149.333333 149.333333 0 0 0 512 832z m0-704a42.666667 42.666667 0 1 1 0-85.333333 42.666667 42.666667 0 0 1 0 85.333333z m341.333333 0a42.666667 42.666667 0 1 1 0-85.333333 42.666667 42.666667 0 0 1 0 85.333333zM170.666667 128a42.666667 42.666667 0 1 1 0-85.333333 42.666667 42.666667 0 0 1 0 85.333333zM512 746.666667a64 64 0 1 1 0-128 64 64 0 0 1 0 128z"  horiz-adv-x="1024" />

    
    <glyph glyph-name="admin_new_video" unicode="&#59135;" d="M64 725.333333h597.333333a42.666667 42.666667 0 0 0 42.666667-42.666666v-597.333334a42.666667 42.666667 0 0 0-42.666667-42.666666H64a42.666667 42.666667 0 0 0-42.666667 42.666666V682.666667a42.666667 42.666667 0 0 0 42.666667 42.666666z m42.666667-85.333333v-512h512V640H106.666667z m213.333333-85.333333v-128H192v128h128z m448-42.666667l163.584 89.237333c31.296 17.066667 71.082667-3.413333 71.082667-36.586666v-361.301334c0-33.152-39.786667-53.632-71.082667-36.586666L768 256V512z m85.333333-207.68l64-25.6v210.56l-64-25.6v-159.36z"  horiz-adv-x="1024" />

    
    <glyph glyph-name="admin_new_voice" unicode="&#59136;" d="M533.333333 768a42.666667 42.666667 0 0 0 42.666667-42.666667v-682.666666a42.666667 42.666667 0 0 0-42.666667-42.666667h-28.16c-9.408 0-18.56 3.114667-26.005333 8.853333L229.994667 200.533333A42.602667 42.602667 0 0 0 213.333333 234.346667v299.306666c0 13.248 6.144 25.749333 16.661334 33.813334l249.173333 191.68A42.602667 42.602667 0 0 0 505.173333 768H533.333333z m-42.666666-107.669333l-192-147.690667v-257.28l192-147.690667V660.330667zM64 533.333333a21.333333 21.333333 0 0 0 21.333333 21.333334h42.666667a21.333333 21.333333 0 0 0 21.333333-21.333334v-298.666666a21.333333 21.333333 0 0 0-21.333333-21.333334H85.333333a21.333333 21.333333 0 0 0-21.333333 21.333334V533.333333z m787.029333-417.322666c-7.978667-8.192-21.077333-7.893333-29.162666 0.213333l-30.037334 30.016c-8.64 8.64-8.213333 22.72 0.213334 31.552A297.557333 297.557333 0 0 1 874.666667 384c0 79.701333-31.210667 152.106667-82.090667 205.653333-8.384 8.853333-8.789333 22.869333-0.170667 31.488l30.037334 30.037334a20.48 20.48 0 0 0 29.205333 0.170666A382.72 382.72 0 0 0 960 384c0-104.234667-41.536-198.784-108.970667-267.989333z m-121.152 120.234666c-7.744-8.064-20.501333-7.530667-28.416 0.362667l-29.546666 29.568c-9.045333 9.045333-8 23.914667 0.426666 33.557333A127.466667 127.466667 0 0 1 704 384a127.530667 127.530667 0 0 1-31.210667 83.754667c-8.341333 9.642667-9.344 24.448-0.341333 33.450666l29.589333 29.568c7.936 7.936 20.736 8.448 28.48 0.32A212.650667 212.650667 0 0 0 789.333333 384a212.629333 212.629333 0 0 0-59.456-147.754667z"  horiz-adv-x="1024" />

    
    <glyph glyph-name="admin_new_succeed_person" unicode="&#59125;" d="M320 618.666667c0 70.698667 57.386667 128 128 128s128-57.301333 128-128-57.386667-128-128-128-128 57.301333-128 128z m128 213.333333c-117.76 0-213.333333-95.509333-213.333333-213.333333s95.573333-213.333333 213.333333-213.333334 213.333333 95.509333 213.333333 213.333334S565.76 832 448 832zM176 128c18.986667 73.6 85.76 128 165.333333 128h171.733334a21.333333 21.333333 0 0 1 21.333333 21.333333v42.666667a21.333333 21.333333 0 0 1-21.333333 21.333333H341.333333C199.893333 341.333333 85.333333 226.709333 85.333333 85.333333v-85.333333c0-23.573333 19.2-42.666667 42.666667-42.666667h385.066667a21.333333 21.333333 0 0 1 21.333333 21.333334v42.666666a21.333333 21.333333 0 0 1-21.333333 21.333334H170.666667v42.666666c0 14.741333 1.92 29.034667 5.333333 42.666667z m738.133333 100.416l30.144-30.165333a21.333333 21.333333 0 0 0 0-30.165334L763.413333-12.8a21.76 21.76 0 0 0-0.149333-0.149333l-30.165333-30.165334a21.226667 21.226667 0 0 0-11.306667-5.909333l-2.517333-0.298667h-2.517334a21.248 21.248 0 0 0-13.824 6.208l-120.682666 120.682667a21.333333 21.333333 0 0 0 0 30.165333l30.165333 30.165334a21.333333 21.333333 0 0 0 30.165333 0l75.434667-75.413334 165.930667 165.930667a21.333333 21.333333 0 0 0 30.165333 0z"  horiz-adv-x="1024" />

    
    <glyph glyph-name="admin_new_person" unicode="&#59126;" d="M384 341.333333h256c117.824 0 256-91.434667 256-256v-128a42.666667 42.666667 0 0 0-42.666667-42.666666H170.666667a42.666667 42.666667 0 0 0-42.666667 42.666666v128c0 164.437333 138.176 256 256 256z m426.666667-341.333333v85.333333c0 107.605333-90.837333 170.666667-170.666667 170.666667H384c-78.08 0-170.666667-59.989333-170.666667-170.666667v-85.333333h597.333334zM512 405.333333c-117.824 0-213.333333 95.509333-213.333333 213.333334S394.176 832 512 832s213.333333-95.509333 213.333333-213.333333-95.509333-213.333333-213.333333-213.333334z m0 85.333334a128 128 0 1 1 0 256 128 128 0 0 1 0-256z"  horiz-adv-x="1024" />

    
    <glyph glyph-name="admin_new_add_person" unicode="&#59127;" d="M320 618.666667c0 70.698667 57.386667 128 128 128s128-57.301333 128-128-57.386667-128-128-128-128 57.301333-128 128z m128 213.333333c-117.76 0-213.333333-95.509333-213.333333-213.333333s95.573333-213.333333 213.333333-213.333334 213.333333 95.509333 213.333333 213.333334S565.76 832 448 832zM176 128c18.986667 73.6 85.76 128 165.333333 128h171.733334a21.333333 21.333333 0 0 1 21.333333 21.333333v42.666667a21.333333 21.333333 0 0 1-21.333333 21.333333H341.333333C199.893333 341.333333 85.333333 226.709333 85.333333 85.333333v-85.333333c0-23.573333 19.2-42.666667 42.666667-42.666667h385.066667a21.333333 21.333333 0 0 1 21.333333 21.333334v42.666666a21.333333 21.333333 0 0 1-21.333333 21.333334H170.666667v42.666666c0 14.741333 1.92 29.034667 5.333333 42.666667zM789.333333 298.666667h-42.666666a21.333333 21.333333 0 0 1-21.333334-21.333334v-106.666666h-106.666666a21.333333 21.333333 0 0 1-21.333334-21.333334v-42.666666a21.333333 21.333333 0 0 1 21.333334-21.333334h106.666666v-106.666666a21.333333 21.333333 0 0 1 21.333334-21.333334h42.666666a21.333333 21.333333 0 0 1 21.333334 21.333334v106.666666h106.666666a21.333333 21.333333 0 0 1 21.333334 21.333334v42.666666a21.333333 21.333333 0 0 1-21.333334 21.333334h-106.666666v106.666666a21.333333 21.333333 0 0 1-21.333334 21.333334z"  horiz-adv-x="1024" />

    
    <glyph glyph-name="admin_new_del_person" unicode="&#59128;" d="M320 618.666667c0 70.698667 57.386667 128 128 128s128-57.301333 128-128-57.386667-128-128-128-128 57.301333-128 128z m128 213.333333c-117.76 0-213.333333-95.509333-213.333333-213.333333s95.573333-213.333333 213.333333-213.333334 213.333333 95.509333 213.333333 213.333334S565.76 832 448 832zM176 128c18.986667 73.6 85.76 128 165.333333 128h171.733334a21.333333 21.333333 0 0 1 21.333333 21.333333v42.666667a21.333333 21.333333 0 0 1-21.333333 21.333333H341.333333C199.893333 341.333333 85.333333 226.709333 85.333333 85.333333v-85.333333c0-23.573333 19.2-42.666667 42.666667-42.666667h385.066667a21.333333 21.333333 0 0 1 21.333333 21.333334v42.666666a21.333333 21.333333 0 0 1-21.333333 21.333334H170.666667v42.666666c0 14.741333 1.92 29.034667 5.333333 42.666667z m727.765333 105.6l-30.165333 30.165333a21.333333 21.333333 0 0 1-30.165333 0L768 188.330667l-75.434667 75.434666a21.333333 21.333333 0 0 1-30.165333 0l-30.165333-30.165333a21.333333 21.333333 0 0 1 0-30.165333L707.669333 128l-75.434666-75.434667a21.333333 21.333333 0 0 1 0-30.165333l30.165333-30.165333a21.333333 21.333333 0 0 1 30.165333 0L768 67.669333l75.434667-75.434666a21.333333 21.333333 0 0 1 30.165333 0l30.165333 30.165333a21.333333 21.333333 0 0 1 0 30.165333L828.330667 128l75.434666 75.434667a21.333333 21.333333 0 0 1 0 30.165333z"  horiz-adv-x="1024" />

    
    <glyph glyph-name="admin_new_group" unicode="&#59129;" d="M362.666667 704a106.688 106.688 0 0 1 0-213.333333 106.688 106.688 0 0 1 0 213.333333z m-192-106.666667a192 192 0 1 0 384 0 192 192 0 0 0-384 0z m78.293333-341.333333C171.306667 256 106.666667 192.064 106.666667 110.933333V42.666667h512v68.266666c0 81.130667-64.64 145.066667-142.293334 145.066667H248.96zM21.333333 110.933333C21.333333 238.186667 123.306667 341.333333 248.96 341.333333h227.413333C602.026667 341.333333 704 238.186667 704 110.933333v-115.2c0-21.205333-17.066667-38.4-37.973333-38.4H59.306667C38.4-42.666667 21.333333-25.472 21.333333-4.266667v115.2zM974.293333 0h-190.72v85.333333H917.333333v25.6c0 42.752-36.053333 81.066667-85.333333 81.066667h-55.893333a232.96 232.96 0 0 1-42.026667 85.333333H832c94.293333 0 170.666667-74.496 170.666667-166.4v-83.2c0-15.317333-12.8-27.733333-28.373334-27.733333zM704 469.333333c0 23.573333 19.2 42.666667 42.666667 42.666667s42.666667-19.093333 42.666666-42.666667-19.2-42.666667-42.666666-42.666666-42.666667 19.093333-42.666667 42.666666z m42.666667 128c-70.613333 0-128-57.301333-128-128s57.386667-128 128-128 128 57.301333 128 128-57.386667 128-128 128z"  horiz-adv-x="1024" />

    
    <glyph glyph-name="admin_new_all_person" unicode="&#59130;" d="M554.666667 341.333333c141.44 0 256-114.624 256-256v-86.976c0-23.573333-19.2-42.666667-42.666667-42.666666H85.333333c-23.466667 0-42.666667 19.093333-42.666666 42.666666V85.333333c0 141.376 114.56 256 256 256h256z m0-85.333333H298.666667a170.645333 170.645333 0 0 1-170.581334-165.333333L128 85.333333v-44.309333h597.333333V85.333333a170.645333 170.645333 0 0 1-165.333333 170.581334L554.666667 256z m405.333333 106.666667a21.333333 21.333333 0 0 0 21.333333-21.333334v-42.666666a21.333333 21.333333 0 0 0-21.333333-21.333334h-149.333333a21.333333 21.333333 0 0 0-21.333334 21.333334v42.666666a21.333333 21.333333 0 0 0 21.333334 21.333334h149.333333zM426.666667 810.666667c117.76 0 213.333333-95.509333 213.333333-213.333334 0-115.84-92.373333-210.090667-207.36-213.248L426.666667 384c-117.76 0-213.333333 95.509333-213.333334 213.333333 0 115.84 92.373333 210.090667 207.36 213.248L426.666667 810.666667z m533.333333-298.666667a21.333333 21.333333 0 0 0 21.333333-21.333333v-42.666667a21.333333 21.333333 0 0 0-21.333333-21.333333H746.666667a21.333333 21.333333 0 0 0-21.333334 21.333333v42.666667a21.333333 21.333333 0 0 0 21.333334 21.333333h213.333333zM426.666667 725.333333c-70.656 0-128-57.322667-128-128s57.344-128 128-128 128 57.322667 128 128-57.344 128-128 128z"  horiz-adv-x="1024" />

    
    <glyph glyph-name="admin_new_arrow_close" unicode="&#59119;" d="M509.568 448.917333L796.16 735.530667a21.333333 21.333333 0 0 0 30.165333 0l30.165334-30.165334a21.333333 21.333333 0 0 0 0-30.186666L569.898667 388.565333 856.512 101.973333a21.333333 21.333333 0 0 0 0-30.165333l-30.165333-30.165333a21.333333 21.333333 0 0 0-30.165334 0L509.568 328.234667 222.933333 41.621333a21.333333 21.333333 0 0 0-30.186666 0l-30.165334 30.165334a21.333333 21.333333 0 0 0 0 30.165333l286.613334 286.613333L162.602667 675.2a21.333333 21.333333 0 0 0 0 30.186667l30.165333 30.165333a21.333333 21.333333 0 0 0 30.186667 0l286.613333-286.613333z"  horiz-adv-x="1024" />

    
    <glyph glyph-name="admin_new_arrow_add" unicode="&#59120;" d="M527.317333 810.666667c9.514667 0 12.949333-0.981333 16.426667-2.858667 3.477333-1.856 6.208-4.586667 8.064-8.064 1.877333-3.477333 2.858667-6.912 2.858667-16.426667V426.666667h356.650666c9.514667 0 12.949333-0.981333 16.426667-2.858667 3.477333-1.856 6.208-4.586667 8.064-8.064 1.877333-3.477333 2.858667-6.912 2.858667-16.426667v-30.634666c0-9.514667-0.981333-12.949333-2.858667-16.426667a19.392 19.392 0 0 0-8.064-8.064c-3.477333-1.877333-6.912-2.858667-16.426667-2.858667H554.666667L554.666667-15.317333c0-9.514667-0.981333-12.949333-2.858667-16.426667a19.392 19.392 0 0 0-8.064-8.064c-3.477333-1.877333-6.912-2.858667-16.426667-2.858667h-30.634666c-9.514667 0-12.949333 0.981333-16.426667 2.858667a19.392 19.392 0 0 0-8.064 8.064c-1.877333 3.477333-2.858667 6.912-2.858667 16.426667L469.312 341.333333 112.682667 341.333333c-9.514667 0-12.949333 0.981333-16.426667 2.858667a19.392 19.392 0 0 0-8.064 8.064c-1.877333 3.477333-2.858667 6.912-2.858667 16.426667v30.634666c0 9.514667 0.981333 12.949333 2.858667 16.426667a19.392 19.392 0 0 0 8.064 8.064c3.477333 1.877333 6.912 2.858667 16.426667 2.858667L469.333333 426.688V783.317333c0 9.514667 0.981333 12.949333 2.858667 16.426667a19.392 19.392 0 0 0 8.064 8.064c3.477333 1.877333 6.912 2.858667 16.426667 2.858667h30.634666z"  horiz-adv-x="1024" />

    
    <glyph glyph-name="admin_new_arrow_left" unicode="&#59121;" d="M325.802667 384l346.965333-346.944a21.333333 21.333333 0 0 0 0-30.186667l-30.186667-30.165333a21.333333 21.333333 0 0 0-30.165333 0L235.306667 353.834667a42.666667 42.666667 0 0 0 0 60.330666L612.416 791.296a21.333333 21.333333 0 0 0 30.165333 0l30.186667-30.165333a21.333333 21.333333 0 0 0 0-30.186667L325.802667 384z"  horiz-adv-x="1024" />

    
    <glyph glyph-name="admin_new_arrow_up" unicode="&#59122;" d="M512 566.528L165.056 219.584a21.333333 21.333333 0 0 0-30.186667 0l-30.165333 30.165333a21.333333 21.333333 0 0 0 0 30.165334L481.834667 657.066667a42.666667 42.666667 0 0 0 60.330666 0l377.130667-377.130667a21.333333 21.333333 0 0 0 0-30.165333l-30.165333-30.165334a21.333333 21.333333 0 0 0-30.186667 0L512 566.528z"  horiz-adv-x="1024" />

    
    <glyph glyph-name="admin_new_arrow_right" unicode="&#59123;" d="M694.528 384L347.584 730.944a21.333333 21.333333 0 0 0 0 30.186667l30.165333 30.165333a21.333333 21.333333 0 0 0 30.165334 0L785.066667 414.165333a42.666667 42.666667 0 0 0 0-60.330666L407.914667-23.296a21.333333 21.333333 0 0 0-30.165334 0l-30.165333 30.165333a21.333333 21.333333 0 0 0 0 30.186667L694.528 384z"  horiz-adv-x="1024" />

    
    <glyph glyph-name="admin_new_arrow_down" unicode="&#59124;" d="M512 219.136l346.944 346.965333a21.333333 21.333333 0 0 0 30.186667 0l30.165333-30.186666a21.333333 21.333333 0 0 0 0-30.165334L542.165333 128.64a42.666667 42.666667 0 0 0-60.330666 0L104.704 505.749333a21.333333 21.333333 0 0 0 0 30.165334l30.165333 30.186666a21.333333 21.333333 0 0 0 30.186667 0L512 219.136z"  horiz-adv-x="1024" />

    


  </font>
</defs>
</svg>
